<svg width="24" height="24" viewBox="0 0 24 24" fill="none" xmlns="http://www.w3.org/2000/svg">
<path d="M18.2255 8.27668C18.2307 8.28573 18.2358 8.29462 18.2384 8.29915C18.3678 8.52401 18.4434 8.78021 18.4476 9.04751L18.506 15.1191C18.5087 15.4773 18.3217 15.8075 18.0167 15.9844L12.7752 19.0213C12.5508 19.1513 12.3122 19.2357 12.0693 19.2505L12.1233 23.993C12.5227 23.9595 12.9211 23.8305 13.2912 23.6103L21.9475 18.5946C22.4519 18.2964 22.7608 17.7515 22.7558 17.1605L22.6655 7.14351C22.6622 6.70144 22.5374 6.27608 22.3251 5.90735L22.3205 5.90985C21.7724 6.21553 19.5986 7.48102 18.2255 8.27668Z" fill="#073042"/>
<path d="M12.0674 19.2574C11.8039 19.2782 11.5455 19.2241 11.3008 19.0899L6.2862 16.2497C5.81824 15.9873 5.52895 15.4951 5.52237 14.9532L5.47212 9.17687C5.46859 8.92096 5.52735 8.65913 5.63876 8.42646L1.51702 6.11877C1.33529 6.49999 1.2401 6.92708 1.24427 7.35041L1.32984 16.8906C1.3385 17.7792 1.81834 18.5927 2.58923 19.0277L10.8627 23.7158C11.2613 23.9406 11.6935 24.0262 12.1233 23.9931L12.0674 19.2574Z" fill="#3DDC84"/>
<path d="M1.51953 6.12334L5.64143 8.43103C5.76119 8.18167 5.94805 7.96556 6.18324 7.82325L11.1735 4.93196C11.6376 4.65702 12.2081 4.65032 12.6717 4.91544L17.6862 7.75554C17.9095 7.88395 18.0967 8.0634 18.2255 8.27671C19.5915 7.47918 21.7678 6.21822 22.3161 5.91253L22.3205 5.90987C22.1013 5.53913 21.7905 5.22752 21.4058 5.00655L13.128 0.320958C12.3569 -0.113929 11.4152 -0.107998 10.653 0.345613L2.41837 5.11673C2.02168 5.35265 1.71779 5.70858 1.51953 6.12334Z" fill="#4285F4"/>
<path d="M12.0825 16.8499C12.1885 16.8365 12.2911 16.807 12.3951 16.7588C12.4335 16.7424 12.4694 16.7216 12.5099 16.6983L16.0235 14.6624C16.0505 14.6468 16.0728 14.6338 16.0972 14.6137C16.1683 14.5605 16.2245 14.4918 16.2641 14.4151C16.2934 14.362 16.3113 14.3097 16.329 14.2575C16.3443 14.2007 16.3524 14.142 16.3489 14.0839L16.3118 10.0153C16.3104 9.8362 16.2584 9.66237 16.173 9.51397C16.1678 9.50494 16.16 9.4915 16.155 9.48247C16.0702 9.34562 15.9495 9.22968 15.8008 9.1479L12.4388 7.24562C12.4193 7.23281 12.3981 7.22705 12.3789 7.21424C12.3383 7.19583 12.2978 7.17726 12.2553 7.16587C12.196 7.14622 12.128 7.13171 12.0623 7.12172C12.018 7.1175 11.9737 7.1133 11.9319 7.11344C11.9018 7.11297 11.874 7.11687 11.8465 7.12093C11.8188 7.12499 11.7841 7.12702 11.7521 7.13358C11.7404 7.13435 11.7316 7.1395 11.7199 7.14029C11.6192 7.1626 11.5216 7.20115 11.4275 7.25575L8.08424 9.19284C8.02131 9.22921 7.96818 9.27212 7.91761 9.3194C7.88245 9.35169 7.85436 9.38603 7.82626 9.42036C7.81342 9.4397 7.80058 9.45905 7.78789 9.47855C7.77056 9.50056 7.76044 9.52444 7.74567 9.55096C7.73748 9.56766 7.72914 9.58451 7.72079 9.60136C7.70249 9.64193 7.68852 9.68001 7.6699 9.72073C7.62607 9.84213 7.60601 9.97368 7.60922 10.1038L7.64165 13.9774C7.64325 14.0425 7.64727 14.112 7.66043 14.1763C7.67953 14.2614 7.70987 14.3456 7.74937 14.4246C7.75964 14.4427 7.77007 14.4606 7.78308 14.4831C7.79592 14.5056 7.80636 14.5237 7.82369 14.5435C7.85676 14.5903 7.89674 14.6391 7.93864 14.6808C7.94827 14.6872 7.95357 14.6962 7.9632 14.7027C8.02003 14.7596 8.08761 14.8044 8.15969 14.8467L11.5218 16.749C11.6203 16.8057 11.729 16.8387 11.8388 16.8531C11.8833 16.8573 11.9276 16.8616 11.9695 16.8613C11.9925 16.8598 12.0113 16.8611 12.0344 16.8598C12.0504 16.8565 12.0663 16.8532 12.0825 16.8499Z" fill="#D7EFFE"/>
<path d="M16.1552 9.48274C16.1603 9.49179 16.1682 9.50521 16.1732 9.51426C16.2586 9.66266 16.3108 9.83649 16.312 10.0156L16.3493 14.0842C16.3482 14.1448 16.3446 14.201 16.3294 14.2578C16.3141 14.3145 16.2918 14.3693 16.2644 14.4153C16.2223 14.4876 16.166 14.5563 16.0976 14.614C16.0732 14.6341 16.0507 14.6471 16.0239 14.6627L12.5101 16.6986C12.4743 16.7194 12.4338 16.7427 12.3953 16.7592C12.2959 16.8046 12.1887 16.8368 12.0827 16.8502L12.0518 17.9717L12.0678 19.2577C12.308 19.2386 12.5493 19.1587 12.7737 19.0287L18.015 15.9918C18.3176 15.8105 18.5046 15.4803 18.5045 15.1264L18.4529 9.05691C18.4488 8.78946 18.3778 8.53089 18.2439 8.30854C18.2388 8.29949 18.2336 8.2906 18.2309 8.28607C17.5624 8.67352 17.0892 8.95361 17.0892 8.95361L16.1552 9.48274Z" fill="#041619"/>
<path d="M5.47456 9.18126L5.52481 14.9576C5.52882 15.495 5.81794 15.9873 6.28863 16.2544L11.3031 19.0944C11.5433 19.2312 11.8062 19.2825 12.0697 19.2619L12.0512 17.9712L12.0822 16.8497C12.0661 16.8531 12.0501 16.8564 12.0339 16.8597C12.0109 16.8611 11.9878 16.8626 11.969 16.8613C11.9273 16.8614 11.883 16.8573 11.8387 16.8529C11.7287 16.8387 11.6245 16.8031 11.5214 16.7488L8.15935 14.8465C8.08711 14.8044 8.02402 14.7569 7.96285 14.7025C7.95322 14.6961 7.94808 14.6872 7.93845 14.6808C7.89639 14.6391 7.85899 14.5948 7.82351 14.5435C7.81034 14.5208 7.79558 14.5055 7.78273 14.4831C7.7723 14.465 7.76202 14.447 7.74902 14.4246C7.70953 14.3454 7.68159 14.2657 7.66008 14.1763C7.64692 14.1119 7.63825 14.0449 7.6413 13.9772L7.60871 10.1038C7.60566 9.97365 7.6283 9.84646 7.66956 9.7207C7.68352 9.68262 7.70198 9.6419 7.7206 9.60117C7.72879 9.58448 7.73698 9.56763 7.74549 9.55077L6.81759 9.09278L5.62964 8.43164C5.52978 8.66352 5.4683 8.921 5.47456 9.18126Z" fill="#37BF6E"/>
<path d="M7.75697 9.55001C7.77158 9.52348 7.78442 9.50414 7.79919 9.47761C7.81187 9.45826 7.82455 9.4389 7.83739 9.4194C7.86549 9.38523 7.89824 9.34825 7.9289 9.31845C7.97947 9.27116 8.03261 9.22841 8.09554 9.19206L11.4387 7.25495C11.5328 7.20035 11.6305 7.1618 11.7312 7.13933C11.7427 7.1387 11.7517 7.13357 11.7633 7.13278C11.7954 7.12622 11.823 7.12216 11.8577 7.12013C11.8853 7.11609 11.9155 7.11656 11.9432 7.1125C11.9848 7.11234 12.0293 7.1167 12.0736 7.12092C12.1393 7.13091 12.2003 7.14355 12.2666 7.16507C12.3091 7.17648 12.3494 7.19489 12.39 7.21346C12.4094 7.22625 12.4306 7.23187 12.4499 7.24466L15.812 9.14696C15.9563 9.23138 16.077 9.34746 16.166 9.48167L17.0951 8.94347C17.0951 8.94347 17.5706 8.66776 18.2367 8.27593C18.1081 8.06262 17.9256 7.88053 17.6976 7.7546L12.6831 4.91466C12.215 4.65205 11.6443 4.65875 11.1847 4.93104L6.19464 7.82248C5.95496 7.96728 5.77259 8.1809 5.65283 8.43026L6.84079 9.09126L7.75697 9.55001Z" fill="#3870B2"/>
</svg>
