<svg width="24" height="24" viewBox="0 0 24 24" fill="none" xmlns="http://www.w3.org/2000/svg">
<path d="M14.3085 9.16374L12.2647 11.0655L10.3682 7.24021L11.3495 5.04039C11.5979 4.59939 12.0032 4.59854 12.2516 5.04039L14.3085 9.16374Z" fill="#FFA000"/>
<path d="M12.2645 11.0654L4.62695 18.1704L10.3679 7.24014L12.2645 11.0654Z" fill="#F57F17"/>
<path d="M16.5439 6.25689C16.909 5.90595 17.2865 6.02565 17.3827 6.5229L19.3706 18.0752L12.7806 22.0248C12.5499 22.1522 11.9392 22.2074 11.9392 22.2074C11.9392 22.2074 11.3818 22.1408 11.1693 22.0229L4.62695 18.17L16.5439 6.25689Z" fill="#FFCA28"/>
<path d="M10.3679 7.24015L4.62695 18.1704L7.18408 2.19554C7.27824 1.69789 7.56152 1.64997 7.81425 2.08922L10.3679 7.24015Z" fill="#FFA000"/>
</svg>
