<svg width="24" height="24" viewBox="0 0 24 24" fill="none" xmlns="http://www.w3.org/2000/svg">
<g clip-path="url(#clip0_915_1184)">
<path fill-rule="evenodd" clip-rule="evenodd" d="M12 0.956818C5.74743 0.956818 0.677246 6.02588 0.677246 12.2796C0.677246 17.2824 3.92156 21.5265 8.42043 23.0239C8.98612 23.1289 9.19387 22.7783 9.19387 22.4792C9.19387 22.2092 9.18337 21.3173 9.1785 20.3711C6.0285 21.0561 5.36381 19.0352 5.36381 19.0352C4.84875 17.7264 4.10662 17.3784 4.10662 17.3784C3.07912 16.6757 4.18406 16.6903 4.18406 16.6903C5.32087 16.77 5.91975 17.8571 5.91975 17.8571C6.92962 19.5878 8.56856 19.0875 9.21468 18.7984C9.31631 18.0666 9.60975 17.5669 9.93356 17.2841C7.41862 16.9982 4.77468 16.0271 4.77468 11.6886C4.77468 10.4524 5.21718 9.44232 5.9415 8.64919C5.82375 8.36419 5.43618 7.21257 6.051 5.65294C6.051 5.65294 7.00162 5.34863 9.16537 6.81357C10.0687 6.56251 11.0376 6.43632 12 6.43201C12.9619 6.43632 13.9312 6.56213 14.8363 6.81319C16.9974 5.34826 17.9469 5.65257 17.9469 5.65257C18.5632 7.212 18.1757 8.36382 18.0581 8.64882C18.7841 9.44194 19.2234 10.452 19.2234 11.6882C19.2234 16.0371 16.5746 16.9944 14.0533 17.2749C14.4596 17.6263 14.8215 18.3156 14.8215 19.3718C14.8215 20.8868 14.8084 22.1061 14.8084 22.479C14.8084 22.7803 15.0124 23.1334 15.5861 23.0222C20.0824 21.5233 23.3229 17.2806 23.3229 12.2796C23.3227 6.02625 18.2531 0.956818 12 0.956818Z" fill="#CCCCCC"/>
</g>
<defs>
<clipPath id="clip0_915_1184">
<rect width="24" height="24" fill="white"/>
</clipPath>
</defs>
</svg>
