<svg width="24" height="24" viewBox="0 0 24 24" fill="none" xmlns="http://www.w3.org/2000/svg">
<path d="M8.42491 19C8.42491 19 7.29216 19.538 9.23106 19.7201C11.58 19.9389 12.7805 19.9075 15.369 19.5074C15.369 19.5074 16.0496 19.8559 17 20.1578C11.1972 22.1889 3.86712 20.0401 8.42491 19Z" fill="#5382A1"/>
<path d="M6.67863 16C6.67863 16 5.34184 17.1754 7.38343 17.4262C10.0236 17.7497 12.1085 17.7762 15.7163 16.951C15.7163 16.951 16.2153 17.5519 17 17.8805C9.61795 20.4445 1.39567 18.0827 6.67863 16Z" fill="#5382A1"/>
<path d="M14.19 11.9411C15.4874 13.5511 13.8491 15 13.8491 15C13.8491 15 17.1434 13.1669 15.6305 10.8715C14.2175 8.7308 13.1339 7.66719 19 4C19 4 9.7921 6.47886 14.19 11.9411Z" fill="#E76F00"/>
<path d="M21.0344 20.4931C21.0344 20.4931 21.871 21.0513 20.1131 21.4832C16.7704 22.3032 6.20059 22.5508 3.26433 21.5158C2.20882 21.144 4.1882 20.6279 4.81084 20.5196C5.46019 20.4056 5.83127 20.4268 5.83127 20.4268C4.65743 19.7572 -1.75592 21.7418 2.5736 22.3101C14.3808 23.8608 24.0971 21.6118 21.0344 20.4931Z" fill="#5382A1"/>
<path d="M8.66128 13.2125C8.66128 13.2125 3.28478 14.2466 6.75733 14.6222C8.22354 14.7812 11.1464 14.7452 13.869 14.5605C16.094 14.4085 18.3282 14.0853 18.3282 14.0853C18.3282 14.0853 17.5437 14.3574 16.976 14.6713C11.5163 15.8341 0.969085 15.2932 4.00549 14.1037C6.57338 13.0984 8.66128 13.2125 8.66128 13.2125Z" fill="#5382A1"/>
<path d="M18.3054 17.5784C23.8555 15.2428 21.2893 12.9983 19.4982 13.3007C19.0592 13.3747 18.8634 13.4388 18.8634 13.4388C18.8634 13.4388 19.0264 13.232 19.3377 13.1425C22.8811 12.1337 25.6063 16.1181 18.1938 17.6961C18.1938 17.6962 18.2797 17.634 18.3054 17.5784Z" fill="#5382A1"/>
<path d="M15.1728 0C15.1728 0 18.3969 2.65246 12.1148 6.7312C7.07727 10.003 10.9661 11.8686 12.1128 14C9.17224 11.8181 7.01429 9.89733 8.46201 8.10967C10.5869 5.48555 16.4736 4.21327 15.1728 0Z" fill="#E76F00"/>
<path d="M8.44319 23.9336C14.103 24.177 22.7942 23.7986 23 22C23 22 22.6043 22.6819 18.3225 23.2233C13.4918 23.8339 7.53376 23.7626 4 23.3713C4.00008 23.3713 4.72341 23.7734 8.44319 23.9336Z" fill="#5382A1"/>
</svg>
