<svg width="24" height="24" viewBox="0 0 24 24" fill="none" xmlns="http://www.w3.org/2000/svg">
<path d="M8.42491 18C8.42491 18 7.29216 18.538 9.23106 18.7201C11.58 18.9389 12.7805 18.9075 15.369 18.5074C15.369 18.5074 16.0496 18.8559 17 19.1578C11.1972 21.1889 3.86712 19.0401 8.42491 18Z" fill="#5382A1"/>
<path d="M7.53875 16C7.53875 16 6.31335 16.7836 8.18481 16.9508C10.6049 17.1665 12.5162 17.1841 15.8233 16.634C15.8233 16.634 16.2807 17.0346 17 17.2537C10.2331 18.963 2.69603 17.3885 7.53875 16Z" fill="#5382A1"/>
<path d="M13.9916 12.2192C15.0728 13.6829 13.7076 15 13.7076 15C13.7076 15 16.4528 13.3336 15.1921 11.2468C14.0145 9.30072 13.1116 8.33381 18 5C18 5 10.3267 7.25351 13.9916 12.2192Z" fill="#E76F00"/>
<path d="M20.2816 19.7853C20.2816 19.7853 21.0485 20.297 19.4371 20.6929C16.373 21.4446 6.68396 21.6716 3.99239 20.7228C3.02483 20.382 4.83927 19.9089 5.41002 19.8096C6.00525 19.7051 6.34541 19.7246 6.34541 19.7246C5.26939 19.1107 -0.60951 20.93 3.35922 21.4509C14.1825 22.8724 23.0891 20.8109 20.2816 19.7853Z" fill="#5382A1"/>
<path d="M8.93934 13.1114C8.93934 13.1114 4.01089 14.0594 7.19405 14.4037C8.53808 14.5494 11.2174 14.5164 13.7131 14.3471C15.7527 14.2078 17.8007 13.9115 17.8007 13.9115C17.8007 13.9115 17.0815 14.1609 16.5612 14.4487C11.5564 15.5146 1.88817 15.0187 4.67154 13.9284C7.02544 13.0069 8.93934 13.1114 8.93934 13.1114Z" fill="#5382A1"/>
<path d="M17.78 17.1135C22.8676 14.9726 20.5153 12.9151 18.8734 13.1923C18.471 13.2601 18.2915 13.3189 18.2915 13.3189C18.2915 13.3189 18.4409 13.1294 18.7263 13.0473C21.9744 12.1225 24.4724 15.7749 17.6777 17.2215C17.6777 17.2215 17.7565 17.1645 17.78 17.1135Z" fill="#5382A1"/>
<path d="M15.1728 1C15.1728 1 18.3969 3.463 12.1148 7.2504C7.07727 10.2885 10.9661 12.0208 12.1128 14C9.17224 11.9739 7.01429 10.1904 8.46201 8.53041C10.5869 6.09372 16.4736 4.91233 15.1728 1Z" fill="#E76F00"/>
<path d="M8.97548 22.9336C14.0395 23.177 21.8158 22.7986 22 21C22 21 21.646 21.6819 17.8149 22.2233C13.4926 22.8339 8.16179 22.7626 5 22.3713C5.00008 22.3713 5.64726 22.7734 8.97548 22.9336Z" fill="#5382A1"/>
</svg>
