<svg width="24" height="24" viewBox="0 0 24 24" fill="none" xmlns="http://www.w3.org/2000/svg">
<path d="M1 5.88269L12 12L23 5.88269C22.9593 5.10302 22.6521 4.37018 22.1414 3.83425C21.6308 3.29832 20.9552 2.99986 20.2531 3H3.74691C3.04482 2.99986 2.36924 3.29832 1.85856 3.83425C1.34787 4.37018 1.04072 5.10302 1 5.88269Z" fill="#CCCCCC"/>
<path d="M23 9L12 14.5823L1 9V17.2088C1 17.9492 1.28973 18.6591 1.80546 19.1826C2.32118 19.7059 3.02066 20 3.75 20H20.25C20.9793 20 21.6788 19.7059 22.1945 19.1826C22.7103 18.6591 23 17.9492 23 17.2088V9Z" fill="#CCCCCC"/>
</svg>
