<svg width="32" height="32" viewBox="0 0 32 32" fill="none" xmlns="http://www.w3.org/2000/svg">
<g clip-path="url(#clip0_1233_2373)">
<path fill-rule="evenodd" clip-rule="evenodd" d="M32 16C32 24.8366 24.8366 32 16 32C7.16344 32 0 24.8366 0 16C0 7.16344 7.16344 0 16 0C24.8366 0 32 7.16344 32 16ZM6.66667 11.4687L16 16L25.3333 11.4687C25.2988 10.8911 25.0382 10.3483 24.6048 9.9513C24.1716 9.55431 23.5983 9.33323 23.0026 9.33333H8.99738C8.40166 9.33323 7.82845 9.55431 7.39514 9.9513C6.96183 10.3483 6.70121 10.8911 6.66667 11.4687ZM16 18.0698L25.3333 13.3333V20.2984C25.3333 20.9266 25.0875 21.5289 24.6499 21.9731C24.2123 22.4172 23.6188 22.6667 23 22.6667H9C8.38116 22.6667 7.78767 22.4172 7.35009 21.9731C6.91249 21.5289 6.66667 20.9266 6.66667 20.2984V13.3333L16 18.0698Z" fill="#000019"/>
</g>
<defs>
<clipPath id="clip0_1233_2373">
<rect width="32" height="32" fill="white"/>
</clipPath>
</defs>
</svg>
