<svg width="24" height="24" viewBox="0 0 24 24" fill="none" xmlns="http://www.w3.org/2000/svg">
<g clip-path="url(#clip0_915_1185)">
<path d="M17.5893 17.271C17.7365 16.0461 17.6924 15.8662 18.6048 16.0648L18.8363 16.0851C19.538 16.1169 20.4558 15.9722 20.995 15.7217C22.1558 15.183 22.844 14.2839 21.6996 14.52C19.0889 15.0587 18.9095 14.1746 18.9095 14.1746C21.6663 10.0843 22.8186 4.89187 21.8238 3.62081C19.1106 0.15412 14.4143 1.79343 14.3358 1.83581L14.3106 1.8405C13.7948 1.73343 13.2175 1.6695 12.5689 1.659C11.3875 1.6395 10.4911 1.96875 9.81101 2.48437C9.81101 2.48437 1.43295 -0.967317 1.82276 6.82518C1.90564 8.48287 4.19876 19.3686 6.93401 16.0806C7.93376 14.8783 8.89976 13.8617 8.89976 13.8617C9.37939 14.1802 9.95389 14.343 10.5561 14.2845L10.6028 14.2447C10.5882 14.394 10.5946 14.5401 10.6214 14.7129C9.91695 15.5002 10.124 15.6384 8.71526 15.9283C7.28989 16.2219 8.12726 16.7449 8.67383 16.8816C9.33664 17.0473 10.8698 17.2821 11.906 15.8319L11.8647 15.9973C12.1411 16.2186 12.1225 17.5867 12.1615 18.5642C12.2007 19.5418 12.2661 20.454 12.4655 20.9919C12.6648 21.5297 12.8999 22.9149 14.7513 22.5182C16.2985 22.1874 17.4815 21.7102 17.5893 17.271Z" fill="black"/>
<path d="M14.1485 23.4855C13.3297 23.4855 12.7965 23.1688 12.4727 22.863C11.9838 22.4017 11.79 21.8076 11.6741 21.4526L11.624 21.3045C11.3908 20.6749 11.3117 19.7683 11.2648 18.6009C11.2577 18.4256 11.2528 18.2451 11.2473 18.0536C11.2434 17.9136 11.2385 17.7379 11.2314 17.5541C10.9364 17.6948 10.6233 17.7937 10.301 17.8481C9.72372 17.9467 9.10309 17.9149 8.45603 17.7531C7.99947 17.6389 7.52509 17.4022 7.25472 17.0368C6.46666 17.727 5.71497 17.6334 5.30547 17.4967C4.58303 17.2558 3.93653 16.5787 3.32884 15.4273C2.89591 14.607 2.47722 13.5382 2.08422 12.2505C1.39984 10.008 0.965031 7.64606 0.926406 6.87056C0.804906 4.44337 1.45834 2.7075 2.86816 1.71168C5.09209 0.140808 8.46166 1.06462 9.69016 1.48406C10.5155 0.98662 11.4866 0.744558 12.5838 0.761996C13.1732 0.771558 13.7343 0.823308 14.2556 0.916308C14.7993 0.745308 15.8733 0.49987 17.1028 0.515245C19.368 0.542245 21.245 1.425 22.5307 3.06806C23.4483 4.24031 22.9946 6.702 22.6427 8.06512C22.1473 9.9825 21.2793 12.0217 20.2132 13.797C20.5027 13.7991 20.9222 13.7644 21.5184 13.6412C22.6948 13.3984 23.0388 14.0291 23.1322 14.3115C23.5063 15.4444 21.8803 16.3005 21.3731 16.536C20.7232 16.8377 19.6637 17.0214 18.7959 16.9817L18.758 16.9792L18.53 16.9592L18.5075 17.1493L18.4858 17.3351C18.4275 19.5849 18.1061 21.0097 17.4448 21.9512C16.7516 22.9382 15.7882 23.2147 14.9396 23.3966C14.6501 23.4585 14.387 23.4855 14.1485 23.4855ZM12.4254 15.2972C12.954 15.7202 13.0003 16.5161 13.0417 18.0036C13.047 18.1892 13.0518 18.3649 13.0584 18.5289C13.0783 19.0258 13.125 20.1892 13.3072 20.6809C13.3329 20.7504 13.356 20.8209 13.3803 20.8957C13.5834 21.5175 13.6852 21.8293 14.5633 21.6416C15.3003 21.4836 15.6793 21.3418 15.9759 20.9196C16.407 20.3057 16.6481 19.0708 16.6923 17.2492L17.5892 17.271L16.6985 17.1641L16.7248 16.9417C16.8101 16.2086 16.8716 15.6791 17.3615 15.3289C17.7547 15.048 18.2027 15.0752 18.5595 15.1395C18.1674 14.8432 18.059 14.4958 18.0302 14.3533L17.9553 13.9849L18.1655 13.6731C19.3762 11.8768 20.3745 9.66918 20.9047 7.61606C21.4496 5.5065 21.2835 4.38618 21.1173 4.17431C18.9182 1.36425 15.1046 2.5245 14.7063 2.65612L14.639 2.6925L14.3015 2.75531L14.1287 2.7195C13.652 2.6205 13.1225 2.56575 12.555 2.55656C11.6632 2.54156 10.9438 2.75231 10.3539 3.19987L9.94459 3.51018L9.46966 3.31462C8.45491 2.89968 5.47441 2.0655 3.90166 3.17943C3.02866 3.79781 2.63097 5.00943 2.71947 6.78075C2.74872 7.36556 3.14603 9.57937 3.80153 11.7264C4.70734 14.6936 5.53047 15.6793 5.87416 15.7939C5.93416 15.8141 6.08978 15.6932 6.24466 15.5072C6.89041 14.7331 7.55908 13.9784 8.24978 13.2441L8.76916 12.6975L9.39709 13.1147C9.65022 13.2829 9.92941 13.3783 10.2161 13.3963L11.7137 12.1191L11.4967 14.3331C11.4918 14.3827 11.4894 14.4504 11.5089 14.5761L11.5742 14.9957L11.291 15.3122L11.2584 15.3489L12.0812 15.7286L12.4254 15.2972Z" fill="black"/>
<path d="M21.6992 14.52C19.0883 15.0587 18.9088 14.1746 18.9088 14.1746C21.6656 10.0841 22.818 4.89152 21.8235 3.62083C19.1104 0.154331 14.4137 1.79364 14.3353 1.83621L14.31 1.84071C13.7942 1.73364 13.2169 1.66989 12.568 1.65939C11.3865 1.64008 10.4905 1.96914 9.8104 2.48477C9.8104 2.48477 1.43215 -0.966731 1.82177 6.82558C1.90465 8.48346 4.19777 19.3691 6.93302 16.0811C7.93277 14.8789 8.89859 13.8623 8.89859 13.8623C9.3784 14.1808 9.95271 14.3436 10.5548 14.2851L10.6016 14.2453C10.587 14.3946 10.5938 14.5406 10.6204 14.7135C9.91577 15.5008 10.1228 15.639 8.71409 15.9289C7.28871 16.2225 8.12609 16.7455 8.67284 16.8821C9.33546 17.0479 10.8688 17.2826 11.9048 15.8325L11.8633 15.9979C12.1395 16.2191 12.3334 17.4364 12.301 18.5398C12.2683 19.6433 12.2466 20.401 12.4643 20.9927C12.6818 21.5845 12.8985 22.9157 14.7503 22.519C16.2975 22.1875 17.0993 21.3281 17.211 19.8949C17.2901 18.8758 17.4692 19.0266 17.4806 18.1155L17.6245 17.6843C17.7902 16.303 17.6507 15.8575 18.6041 16.0646L18.8357 16.0849C19.5373 16.1168 20.4555 15.972 20.9946 15.7215C22.1552 15.1832 22.8435 14.284 21.6992 14.52Z" fill="#336791"/>
<path d="M14.2417 22.9326C12.6982 22.9326 12.2092 21.7102 12.0092 21.2104C11.7163 20.4778 11.6531 17.6349 11.7184 15.3036C11.7193 15.2642 11.7281 15.2255 11.7441 15.1896C11.7601 15.1536 11.783 15.1212 11.8116 15.0942C11.8402 15.0672 11.8739 15.0461 11.9106 15.0322C11.9474 15.0182 11.9866 15.0117 12.0259 15.0129C12.0651 15.014 12.1038 15.0228 12.1397 15.0388C12.1755 15.0548 12.2079 15.0778 12.2349 15.1063C12.2619 15.1349 12.283 15.1685 12.297 15.2052C12.311 15.2419 12.3176 15.281 12.3165 15.3202C12.2413 18.0092 12.348 20.4459 12.5647 20.9882C12.903 21.8336 13.416 22.5731 14.8663 22.2624C16.2431 21.9671 16.7587 21.4451 16.9884 20.1137C17.1647 19.092 17.5132 16.1854 17.5562 15.6118C17.5591 15.5726 17.5696 15.5344 17.5873 15.4993C17.605 15.4642 17.6294 15.4329 17.6592 15.4073C17.689 15.3816 17.7235 15.3621 17.7609 15.3498C17.7982 15.3376 17.8376 15.3328 17.8768 15.3358C17.9559 15.3418 18.0294 15.3789 18.0811 15.439C18.1329 15.4991 18.1586 15.5773 18.1528 15.6564C18.108 16.2536 17.7611 19.1546 17.5781 20.2155C17.307 21.7881 16.6059 22.5013 14.9917 22.8474C14.7174 22.9061 14.4682 22.9324 14.2417 22.9326ZM5.8725 16.9624C5.73758 16.9619 5.60362 16.9397 5.47575 16.8967C4.47318 16.5622 3.51825 14.9295 2.63737 12.0433C1.96687 9.84636 1.542 7.55324 1.50468 6.80792C1.39425 4.59842 1.96312 3.03524 3.19593 2.16205C5.63475 0.43405 9.73743 2.07955 9.91087 2.15043C9.98435 2.18044 10.0429 2.2384 10.0736 2.31158C10.1044 2.38475 10.1048 2.46714 10.0747 2.54061C10.0447 2.61409 9.98677 2.67263 9.91359 2.70336C9.84042 2.73409 9.75803 2.7345 9.68456 2.70449C9.645 2.68836 5.71087 1.11224 3.54056 2.65105C2.48643 3.39843 2.0025 4.78705 2.10206 6.77811C2.13337 7.40605 2.53031 9.64405 3.20943 11.8685C3.99581 14.4452 4.89075 16.071 5.66493 16.3292C5.78643 16.3697 6.15618 16.4929 6.68475 15.8572C7.30114 15.117 7.94065 14.3962 8.60231 13.6961C8.65767 13.6409 8.73246 13.6095 8.81065 13.6088C8.88884 13.608 8.96423 13.6378 9.02069 13.6919C9.07715 13.746 9.11019 13.8201 9.11273 13.8982C9.11528 13.9764 9.08713 14.0524 9.03431 14.1101C9.02531 14.1195 8.1255 15.0602 7.14487 16.2399C6.68043 16.7985 6.23531 16.9624 5.8725 16.9624ZM18.8904 14.4414C18.8362 14.4414 18.783 14.4265 18.7365 14.3986C18.69 14.3706 18.6521 14.3305 18.6266 14.2826C18.6011 14.2347 18.5892 14.1808 18.592 14.1267C18.5948 14.0725 18.6123 14.0201 18.6426 13.9751C21.4294 9.8398 22.4076 4.84311 21.5698 3.77249C20.5153 2.42511 19.0264 1.72142 17.1441 1.68074C15.7504 1.65074 14.6426 2.00661 14.4615 2.06868L14.4159 2.08724C14.2339 2.14443 14.0942 2.04468 14.0415 1.92805C14.0115 1.86123 14.0069 1.78573 14.0287 1.71578C14.0505 1.64584 14.0971 1.58629 14.1598 1.54836C14.1684 1.5433 14.1958 1.53168 14.2402 1.51536C14.5479 1.40267 15.6726 1.06518 17.0655 1.08111C19.1482 1.10324 20.8687 1.9063 22.0406 3.40386C22.5951 4.11242 22.5964 5.7448 22.0442 7.88267C21.4813 10.0624 20.4221 12.4048 19.1385 14.3096C19.0811 14.3953 18.9866 14.4414 18.8904 14.4414ZM19.0329 16.3558C18.5571 16.3558 18.1305 16.2887 17.8751 16.1357C17.6126 15.9784 17.5626 15.7646 17.556 15.6512C17.4844 14.3931 18.1785 14.174 18.5325 14.0741C18.4832 13.9995 18.4131 13.9117 18.3405 13.8212C18.1341 13.5632 17.8513 13.2099 17.6334 12.6816C17.5993 12.5991 17.4924 12.4072 17.3687 12.185C16.6976 10.9817 15.3013 8.47761 16.1983 7.1953C16.6134 6.60186 17.4401 6.36824 18.6581 6.49855C18.2998 5.40693 16.5936 1.99218 12.5449 1.9258C11.3272 1.90555 10.3286 2.27999 9.57825 3.03768C7.89825 4.73436 7.959 7.8043 7.95993 7.83505C7.96097 7.87432 7.95426 7.91342 7.94018 7.9501C7.92611 7.98678 7.90495 8.02032 7.87791 8.04883C7.85087 8.07733 7.81848 8.10022 7.78259 8.11621C7.74671 8.13219 7.70802 8.14095 7.66875 8.14199C7.62947 8.14302 7.59038 8.13631 7.5537 8.12224C7.51702 8.10816 7.48347 8.087 7.45497 8.05996C7.42647 8.03292 7.40357 8.00053 7.38759 7.96465C7.3716 7.92876 7.36284 7.89007 7.36181 7.8508C7.35806 7.71449 7.29543 4.49286 9.15318 2.61655C10.0226 1.73849 11.1671 1.30499 12.5548 1.32768C15.1449 1.37024 16.8122 2.68705 17.7546 3.78411C18.7819 4.9798 19.2855 6.29868 19.3269 6.73893C19.3579 7.0663 19.1229 7.13174 19.0755 7.14149L18.9675 7.14393C17.7722 6.95249 17.0053 7.08543 16.6882 7.53843C16.0059 8.51361 17.3269 10.8823 17.8909 11.8939C18.0349 12.1519 18.1387 12.3384 18.1864 12.4535C18.3716 12.9028 18.6133 13.2047 18.8074 13.4473C18.9782 13.6607 19.1261 13.8457 19.179 14.0629C19.2036 14.106 19.5521 14.6216 21.6204 14.1947C22.1389 14.0878 22.4497 14.1791 22.5448 14.4666C22.7317 15.0319 21.6829 15.6913 21.1022 15.9609C20.5819 16.2028 19.7514 16.3558 19.0329 16.3558ZM18.1524 15.6019C18.2181 15.6681 18.5464 15.7822 19.2262 15.753C19.8307 15.7271 20.4682 15.5957 20.8507 15.4181C21.3399 15.1909 21.6666 14.9368 21.8357 14.7634L21.7419 14.7806C20.4195 15.0536 19.4841 15.0172 18.9617 14.6724C18.9266 14.6492 18.8928 14.6241 18.8604 14.5972C18.8038 14.6196 18.7515 14.6342 18.7142 14.6447C18.4179 14.7277 18.1116 14.8138 18.1524 15.6019ZM9.60956 17.2734C9.28106 17.2734 8.93531 17.2286 8.58225 17.1403C8.21643 17.0488 7.59975 16.7734 7.60912 16.3209C7.61981 15.8134 8.358 15.6611 8.63587 15.6039C9.63975 15.3971 9.70518 15.3142 10.0189 14.9158C10.1104 14.7997 10.2242 14.6552 10.3794 14.4819C10.6099 14.2239 10.8617 14.0932 11.1279 14.0932C11.3134 14.0932 11.4654 14.1561 11.5659 14.1979C11.8862 14.3306 12.1534 14.6516 12.2632 15.0354C12.3624 15.3817 12.315 15.7151 12.1301 15.9741C11.5232 16.824 10.6515 17.2734 9.60956 17.2734ZM8.25543 16.3466C8.34562 16.4164 8.52637 16.5096 8.72756 16.5598C9.03337 16.6363 9.33 16.6751 9.60975 16.6751C10.4621 16.6751 11.1465 16.3222 11.6436 15.6262C11.7472 15.4811 11.7161 15.2968 11.6884 15.1999C11.6302 14.9968 11.4859 14.8121 11.3372 14.7504C11.2566 14.7171 11.1896 14.6916 11.1281 14.6916C11.0951 14.6916 10.9946 14.6916 10.8255 14.8807C10.7088 15.012 10.5966 15.1472 10.4891 15.2861C10.0984 15.7822 9.91931 15.9506 8.75681 16.1901C8.47312 16.2482 8.32762 16.3074 8.25543 16.3466ZM10.5559 14.9666C10.4845 14.9665 10.4154 14.9408 10.3613 14.8943C10.3071 14.8477 10.2714 14.7833 10.2606 14.7127C10.2531 14.6631 10.2481 14.6131 10.2456 14.5629C9.48356 14.5487 8.74837 14.2217 8.19018 13.6393C7.48443 12.903 7.16325 11.8828 7.30912 10.8405C7.46756 9.70855 7.40831 8.70936 7.37643 8.17255C7.36762 8.0233 7.36125 7.91549 7.36162 7.84086C7.36218 7.74618 7.36406 7.49511 8.20331 7.06968C8.50181 6.91836 9.10031 6.65436 9.75412 6.58668C10.8373 6.47474 11.5513 6.95717 11.7651 7.9453C12.342 10.613 11.8108 11.793 11.4229 12.6547C11.3507 12.8152 11.2824 12.9667 11.2279 13.1136L11.1797 13.2429C10.9747 13.7925 10.7976 14.2672 10.8519 14.6218C10.8579 14.6606 10.8562 14.7003 10.8468 14.7384C10.8375 14.7766 10.8207 14.8125 10.7974 14.8442C10.7742 14.8759 10.7449 14.9027 10.7113 14.923C10.6777 14.9434 10.6405 14.9569 10.6016 14.9629L10.5559 14.9666ZM7.96181 7.92374L7.97343 8.1373C8.00643 8.69492 8.06793 9.73255 7.90143 10.9235C7.78125 11.7832 8.04375 12.6223 8.622 13.2253C9.07893 13.7019 9.68025 13.965 10.2982 13.965H10.311C10.3802 13.6734 10.4951 13.3655 10.6189 13.0339L10.6667 12.9052C10.7284 12.7395 10.8006 12.579 10.8771 12.4091C11.2504 11.5796 11.7152 10.547 11.1799 8.07186C11.0739 7.58155 10.8169 7.29786 10.3944 7.2043C9.52668 7.01267 8.2335 7.66536 7.96181 7.92374ZM9.76743 7.7968C9.75243 7.90255 9.96112 8.18492 10.2334 8.22261C10.5051 8.26067 10.7376 8.0398 10.7524 7.93405C10.7672 7.8283 10.5587 7.71167 10.2864 7.6738C10.0144 7.63592 9.78187 7.69105 9.76743 7.7968ZM10.2958 8.32667L10.2195 8.32142C10.0507 8.29799 9.88012 8.19167 9.76331 8.0368C9.72225 7.98242 9.65531 7.87705 9.66862 7.78292C9.68756 7.64492 9.85593 7.56224 10.1186 7.56224C10.1773 7.56224 10.2384 7.56655 10.2999 7.57518C10.4436 7.59505 10.5769 7.63649 10.6753 7.69142C10.8459 7.78667 10.8585 7.89299 10.8508 7.94792C10.8298 8.10036 10.5874 8.32667 10.2958 8.32667ZM9.86662 7.81442C9.87506 7.87967 10.0367 8.09492 10.2471 8.12399L10.296 8.12736C10.4902 8.12736 10.6354 7.97455 10.6524 7.92449C10.6344 7.89036 10.5096 7.80561 10.2727 7.77261C10.2218 7.7653 10.1703 7.7616 10.1188 7.76155C9.96656 7.76155 9.88575 7.79586 9.86662 7.81442ZM18.0426 7.58099C18.0574 7.68674 17.8489 7.96911 17.5768 8.00699C17.3049 8.04486 17.0722 7.82418 17.0572 7.71843C17.043 7.61268 17.2515 7.49586 17.5234 7.45817C17.7952 7.42011 18.0276 7.47542 18.0426 7.58099ZM17.514 8.06099C17.2522 8.06099 17.0263 7.85736 17.0077 7.72517C16.9862 7.56655 17.2474 7.44599 17.5162 7.40867C17.5755 7.40042 17.6342 7.3963 17.6906 7.3963C17.9227 7.3963 18.0765 7.46436 18.0919 7.57424C18.1018 7.6453 18.0472 7.75499 17.9533 7.85399C17.8912 7.91905 17.7609 8.03174 17.5834 8.0563L17.514 8.06099ZM17.6908 7.49605C17.6391 7.49605 17.5851 7.49999 17.5303 7.50749C17.2601 7.54518 17.0989 7.65355 17.1067 7.71168C17.1157 7.77561 17.2882 7.96142 17.5142 7.96142L17.5699 7.95749C17.7174 7.93705 17.8282 7.84067 17.8811 7.78517C17.9642 7.69799 17.9972 7.61586 17.9932 7.58793C17.988 7.5508 17.8882 7.49605 17.6908 7.49605ZM18.4342 13.6541C18.38 13.6541 18.3269 13.6394 18.2804 13.6116C18.2339 13.5837 18.1959 13.5437 18.1703 13.4959C18.1448 13.448 18.1328 13.3942 18.1356 13.34C18.1383 13.2859 18.1558 13.2335 18.186 13.1885C18.8231 12.237 18.7065 11.2667 18.5938 10.3282C18.5456 9.92849 18.4961 9.51505 18.5089 9.1183C18.522 8.71011 18.5739 8.37336 18.624 8.04768C18.6834 7.6618 18.7397 7.2973 18.7164 6.86455C18.7143 6.82533 18.7199 6.78607 18.733 6.74902C18.7461 6.71197 18.7663 6.67786 18.7925 6.64862C18.8188 6.61939 18.8505 6.59561 18.8859 6.57864C18.9213 6.56168 18.9598 6.55186 18.999 6.54974C19.0382 6.54762 19.0775 6.55325 19.1145 6.5663C19.1516 6.57936 19.1857 6.59958 19.2149 6.62582C19.2442 6.65206 19.2679 6.6838 19.2849 6.71922C19.3019 6.75465 19.3117 6.79308 19.3138 6.8323C19.3404 7.32693 19.2769 7.73942 19.2154 8.13861C19.1679 8.44667 19.1188 8.76524 19.107 9.13743C19.0956 9.4888 19.1404 9.86192 19.1878 10.2568C19.3078 11.2547 19.4437 12.3857 18.6832 13.5214C18.6559 13.5623 18.6188 13.5958 18.5754 13.6189C18.5319 13.6421 18.4835 13.6542 18.4342 13.6541Z" fill="white"/>
</g>
<defs>
<clipPath id="clip0_915_1185">
<rect width="24" height="24" fill="white"/>
</clipPath>
</defs>
</svg>
