<svg width="24" height="24" viewBox="0 0 24 24" fill="none" xmlns="http://www.w3.org/2000/svg">
<path d="M9.619 3.31876H4.35025C3.30025 3.31876 2.43775 4.18126 2.43775 5.25001C2.40025 6.28126 3.22525 7.14376 4.2565 7.18126H9.67525L9.619 3.31876Z" fill="#073042"/>
<path d="M21.5625 20.4938H4.35C3.28125 20.4938 2.4375 19.6313 2.4375 18.5625V5.23126C2.4375 6.30001 3.3 7.16251 4.35 7.18126H18.7687C18.7687 7.18126 21.5812 6.93751 21.5812 9.05626V20.4938H21.5625Z" fill="#4285F4"/>
<path d="M13.5379 13.6687C14.3066 13.0875 14.4566 12 13.8754 11.25C13.5566 10.8375 13.0691 10.575 12.5441 10.5562H12.6004C12.6941 10.5375 12.8066 10.5375 12.9004 10.5562V9.4875C12.9004 9.35625 12.8441 9.24375 12.7316 9.1875C12.5629 9.09375 12.3566 9.15 12.2629 9.31875C12.2254 9.375 12.2066 9.43125 12.2254 9.50625V10.5937C11.2879 10.7437 10.6316 11.625 10.7816 12.5812V12.6C10.8566 13.05 11.1004 13.4625 11.4754 13.725L8.30664 20.5125H10.3691L11.8316 17.4C12.0004 17.025 12.4504 16.8562 12.8441 17.0437C12.9941 17.1187 13.1254 17.25 13.2004 17.4L14.7191 20.5125H16.8191L13.5379 13.6687ZM12.4691 13.3687C11.8691 13.3687 11.4004 12.8812 11.4004 12.2812C11.4004 11.6812 11.8879 11.2125 12.4879 11.2312C12.7691 11.2312 13.0129 11.3437 13.2191 11.5312C13.6504 11.9437 13.6504 12.6187 13.2379 13.05C13.0504 13.2375 12.7691 13.3687 12.4691 13.3687Z" fill="#3870B2"/>
<path d="M8.47461 4.25626H15.8621V5.60626H8.47461V4.25626Z" fill="white"/>
<path d="M11.9064 11.2125C12.4877 11.2125 12.9752 11.7 12.9564 12.3C12.9564 12.8813 12.4689 13.3688 11.8689 13.35C11.2877 13.35 10.8189 12.8625 10.8189 12.2813C10.8189 12 10.9314 11.7375 11.1377 11.5313C11.3439 11.325 11.6252 11.2125 11.9064 11.2125ZM12.3189 10.5938V9.46876C12.3189 9.33751 12.2627 9.22501 12.1502 9.16876C11.9814 9.07501 11.7752 9.13126 11.6814 9.30001C11.6439 9.35626 11.6252 9.41251 11.6439 9.48751V10.575C10.7064 10.725 10.0502 11.6063 10.2002 12.5625V12.5813C10.2752 13.0313 10.5189 13.4438 10.8939 13.7063L6.90017 22.275C6.75017 22.575 6.76892 22.95 6.97517 23.2313C7.27517 23.6625 7.85642 23.775 8.28767 23.475C8.43767 23.3813 8.55017 23.2313 8.62517 23.0813L11.2877 17.3813C11.4564 17.0063 11.9064 16.8375 12.3002 17.025C12.4502 17.1 12.5814 17.2313 12.6564 17.3813L15.3752 23.025C15.6002 23.4938 16.1627 23.6813 16.6314 23.4563C17.1002 23.2313 17.2877 22.6688 17.0627 22.2L12.9564 13.6688C13.7064 13.0688 13.8377 11.9625 13.2377 11.2125C13.0127 10.9125 12.6939 10.7063 12.3189 10.5938Z" fill="#073042"/>
<path d="M14.7752 5.45625C14.4939 5.45625 14.2689 5.25 14.2689 4.96875C14.2689 4.8375 14.3252 4.6875 14.4189 4.59375C14.6252 4.40625 14.9252 4.40625 15.1314 4.59375C15.2252 4.6875 15.2814 4.81875 15.2814 4.95C15.2627 5.23125 15.0564 5.4375 14.7752 5.45625ZM9.2252 5.4375C8.94395 5.4375 8.71895 5.2125 8.71895 4.95C8.71895 4.81875 8.7752 4.6875 8.86895 4.59375C9.0377 4.3875 9.35645 4.35 9.5627 4.51875H9.58145C9.7877 4.70625 9.80645 5.025 9.61895 5.23125L9.5627 5.30625C9.46895 5.4 9.3377 5.45625 9.20645 5.45625M14.9252 2.41875L15.9189 0.69375C15.9752 0.6 15.9377 0.4875 15.8627 0.4125C15.7689 0.375 15.6752 0.39375 15.6189 0.46875L14.5877 2.25C12.9377 1.51875 11.0627 1.51875 9.43145 2.25L8.41895 0.4875C8.38145 0.43125 8.30645 0.375 8.23145 0.375C8.15645 0.375 8.08145 0.4125 8.04395 0.4875C8.00645 0.54375 8.00645 0.6375 8.04395 0.69375L9.05645 2.41875C7.29395 3.375 6.1502 5.175 5.98145 7.1625H18.0189C17.8689 5.15625 16.7064 3.375 14.9439 2.41875" fill="#3DDC84"/>
<path d="M19.8 10.8937H19.0125C18.975 10.9125 18.9375 10.95 18.9375 11.0062V23.475C18.9375 23.5312 18.975 23.5687 19.0312 23.5687H19.8563C20.8125 23.5687 21.5812 22.7812 21.5812 21.8437V9.14999C21.5812 10.1062 20.8125 10.875 19.8563 10.875H19.8V10.8937Z" fill="#073042"/>
</svg>
