<svg width="24" height="24" viewBox="0 0 24 24" fill="none" xmlns="http://www.w3.org/2000/svg">
<path d="M15.6002 9.84001C15.6002 7.94401 14.1122 6.38401 12.2402 6.26401V10.32H15.6002V9.84001Z" fill="#CCCCCC"/>
<path d="M8.3999 9.84001V10.32H11.7599V6.26401C9.8879 6.38401 8.3999 7.94401 8.3999 9.84001Z" fill="#CCCCCC"/>
<path d="M15.5999 14.16V10.8H8.3999V14.16C8.3999 16.152 10.0079 17.76 11.9999 17.76C13.9919 17.76 15.5999 16.152 15.5999 14.16Z" fill="#CCCCCC"/>
<path d="M12.8638 19.824L11.9998 20.688L11.1358 19.824C10.9438 19.632 10.6558 19.632 10.4638 19.824C10.2718 20.016 10.2718 20.304 10.4638 20.496L11.6638 21.696C11.7598 21.792 11.8798 21.84 11.9998 21.84C12.1198 21.84 12.2398 21.792 12.3358 21.696L13.5358 20.496C13.7278 20.304 13.7278 20.016 13.5358 19.824C13.3438 19.632 13.0558 19.632 12.8638 19.824Z" fill="#CCCCCC"/>
<path d="M12.3358 2.304C12.1438 2.112 11.8558 2.112 11.6638 2.304L10.4638 3.504C10.2718 3.696 10.2718 3.984 10.4638 4.176C10.5598 4.272 10.6798 4.32 10.7998 4.32C10.9198 4.32 11.0398 4.272 11.1358 4.176L11.9998 3.312L12.8638 4.176C12.9598 4.272 13.0798 4.32 13.1998 4.32C13.3198 4.32 13.4398 4.272 13.5358 4.176C13.7278 3.984 13.7278 3.696 13.5358 3.504L12.3358 2.304Z" fill="#CCCCCC"/>
</svg>
