<svg width="32" height="32" viewBox="0 0 32 32" fill="none" xmlns="http://www.w3.org/2000/svg">
<g clip-path="url(#clip0_1233_2374)">
<path fill-rule="evenodd" clip-rule="evenodd" d="M16 0C7.16347 0 0 7.16347 0 16C0 24.8365 7.16347 32 16 32C24.8365 32 32 24.8365 32 16C32 7.16347 24.8365 0 16 0ZM7.68107 13.2519H11.307V24.1464H7.68107V13.2519ZM11.5459 9.8818C11.5223 8.8136 10.7585 8 9.518 8C8.2776 8 7.46667 8.8136 7.46667 9.8818C7.46667 10.9279 8.25367 11.7649 9.47093 11.7649H9.49413C10.7585 11.7649 11.5459 10.9279 11.5459 9.8818ZM20.2087 12.9961C22.5948 12.9961 24.3836 14.5535 24.3836 17.8998L24.3835 24.1464H20.7577V18.3178C20.7577 16.8538 20.2329 15.8548 18.9203 15.8548C17.9186 15.8548 17.3219 16.5283 17.0599 17.1788C16.964 17.4119 16.9405 17.7367 16.9405 18.0623V24.1467H13.3141C13.3141 24.1467 13.3619 14.2745 13.3141 13.2522H16.9405V14.7953C17.4217 14.0535 18.2836 12.9961 20.2087 12.9961Z" fill="#000019"/>
</g>
<defs>
<clipPath id="clip0_1233_2374">
<rect width="32" height="32" fill="white"/>
</clipPath>
</defs>
</svg>
