<svg width="215" height="39" viewBox="0 0 215 39" fill="none" xmlns="http://www.w3.org/2000/svg">
<g clip-path="url(#clip0_447_316)">
<mask id="mask0_447_316" style="mask-type:luminance" maskUnits="userSpaceOnUse" x="0" y="0" width="215" height="39">
<path d="M215 0H0V39H215V0Z" fill="white"/>
</mask>
<g mask="url(#mask0_447_316)">
<path d="M5.76042 25.646L0.482422 19.9L5.76042 14.154H11.3504L6.04642 19.9L11.3504 25.646H5.76042ZM24.8387 4.29999L17.8707 33.862H13.5807L20.5487 4.29999H24.8387ZM202.623 4.29999L195.655 33.862H191.365L198.333 4.29999H202.623ZM204.525 14.154H210.115L215.393 19.9L210.115 25.646H204.525L209.829 19.9L204.525 14.154Z" fill="#4D2776"/>
<path d="M31.1599 10.748V29H26.7139V10.748H31.1599ZM42.4678 25.23V29H40.2058C38.5938 29 37.3372 28.61 36.4358 27.83C35.5345 27.0327 35.0838 25.7413 35.0838 23.956V18.184H33.3158V14.492H35.0838V10.956H39.5298V14.492H42.4418V18.184H39.5298V24.008C39.5298 24.4413 39.6338 24.7533 39.8418 24.944C40.0498 25.1347 40.3965 25.23 40.8818 25.23H42.4678ZM44.0603 21.72C44.0603 20.2293 44.3377 18.9207 44.8923 17.794C45.4643 16.6673 46.2357 15.8007 47.2063 15.194C48.177 14.5873 49.2603 14.284 50.4563 14.284C51.479 14.284 52.3717 14.492 53.1343 14.908C53.9143 15.324 54.5123 15.87 54.9283 16.546V14.492H59.3743V29H54.9283V26.946C54.495 27.622 53.8883 28.168 53.1083 28.584C52.3457 29 51.453 29.208 50.4303 29.208C49.2517 29.208 48.177 28.9047 47.2063 28.298C46.2357 27.674 45.4643 26.7987 44.8923 25.672C44.3377 24.528 44.0603 23.2107 44.0603 21.72ZM54.9283 21.746C54.9283 20.6367 54.6163 19.7613 53.9923 19.12C53.3857 18.4787 52.6403 18.158 51.7563 18.158C50.8723 18.158 50.1183 18.4787 49.4943 19.12C48.8877 19.744 48.5843 20.6107 48.5843 21.72C48.5843 22.8293 48.8877 23.7133 49.4943 24.372C50.1183 25.0133 50.8723 25.334 51.7563 25.334C52.6403 25.334 53.3857 25.0133 53.9923 24.372C54.6163 23.7307 54.9283 22.8553 54.9283 21.746ZM81.1028 14.336C82.9055 14.336 84.3355 14.882 85.3928 15.974C86.4675 17.066 87.0048 18.5827 87.0048 20.524V29H82.5848V21.122C82.5848 20.186 82.3335 19.4667 81.8308 18.964C81.3455 18.444 80.6695 18.184 79.8028 18.184C78.9361 18.184 78.2515 18.444 77.7488 18.964C77.2635 19.4667 77.0208 20.186 77.0208 21.122V29H72.6008V21.122C72.6008 20.186 72.3495 19.4667 71.8468 18.964C71.3615 18.444 70.6855 18.184 69.8188 18.184C68.9521 18.184 68.2675 18.444 67.7648 18.964C67.2795 19.4667 67.0368 20.186 67.0368 21.122V29H62.5908V14.492H67.0368V16.312C67.4875 15.7053 68.0768 15.2287 68.8048 14.882C69.5328 14.518 70.3561 14.336 71.2748 14.336C72.3668 14.336 73.3375 14.57 74.1868 15.038C75.0535 15.506 75.7295 16.1733 76.2148 17.04C76.7175 16.2427 77.4021 15.5927 78.2688 15.09C79.1355 14.5873 80.0801 14.336 81.1028 14.336ZM92.3503 12.984C91.5703 12.984 90.9289 12.7587 90.4263 12.308C89.9409 11.84 89.6983 11.268 89.6983 10.592C89.6983 9.89865 89.9409 9.32665 90.4263 8.87598C90.9289 8.40798 91.5703 8.17398 92.3503 8.17398C93.1129 8.17398 93.7369 8.40798 94.2223 8.87598C94.7249 9.32665 94.9763 9.89865 94.9763 10.592C94.9763 11.268 94.7249 11.84 94.2223 12.308C93.7369 12.7587 93.1129 12.984 92.3503 12.984ZM94.5603 14.492V29H90.1143V14.492H94.5603ZM123.962 10.748V29H119.516V18.054L115.434 29H111.846L107.738 18.028V29H103.292V10.748H108.544L113.666 23.384L118.736 10.748H123.962ZM133.763 29.208C132.342 29.208 131.059 28.9047 129.915 28.298C128.788 27.6913 127.896 26.8247 127.237 25.698C126.596 24.5713 126.275 23.254 126.275 21.746C126.275 20.2553 126.604 18.9467 127.263 17.82C127.922 16.676 128.823 15.8007 129.967 15.194C131.111 14.5873 132.394 14.284 133.815 14.284C135.236 14.284 136.519 14.5873 137.663 15.194C138.807 15.8007 139.708 16.676 140.367 17.82C141.026 18.9467 141.355 20.2553 141.355 21.746C141.355 23.2367 141.017 24.554 140.341 25.698C139.682 26.8247 138.772 27.6913 137.611 28.298C136.467 28.9047 135.184 29.208 133.763 29.208ZM133.763 25.36C134.612 25.36 135.332 25.048 135.921 24.424C136.528 23.8 136.831 22.9073 136.831 21.746C136.831 20.5847 136.536 19.692 135.947 19.068C135.375 18.444 134.664 18.132 133.815 18.132C132.948 18.132 132.229 18.444 131.657 19.068C131.085 19.6747 130.799 20.5673 130.799 21.746C130.799 22.9073 131.076 23.8 131.631 24.424C132.203 25.048 132.914 25.36 133.763 25.36ZM148.16 16.546C148.576 15.87 149.174 15.324 149.954 14.908C150.734 14.492 151.626 14.284 152.632 14.284C153.828 14.284 154.911 14.5873 155.882 15.194C156.852 15.8007 157.615 16.6673 158.17 17.794C158.742 18.9207 159.028 20.2293 159.028 21.72C159.028 23.2107 158.742 24.528 158.17 25.672C157.615 26.7987 156.852 27.674 155.882 28.298C154.911 28.9047 153.828 29.208 152.632 29.208C151.609 29.208 150.716 29.0087 149.954 28.61C149.191 28.194 148.593 27.648 148.16 26.972V29H143.714V9.75998H148.16V16.546ZM154.504 21.72C154.504 20.6107 154.192 19.744 153.568 19.12C152.961 18.4787 152.207 18.158 151.306 18.158C150.422 18.158 149.668 18.4787 149.044 19.12C148.437 19.7613 148.134 20.6367 148.134 21.746C148.134 22.8553 148.437 23.7307 149.044 24.372C149.668 25.0133 150.422 25.334 151.306 25.334C152.19 25.334 152.944 25.0133 153.568 24.372C154.192 23.7133 154.504 22.8293 154.504 21.72ZM163.596 12.984C162.816 12.984 162.175 12.7587 161.672 12.308C161.187 11.84 160.944 11.268 160.944 10.592C160.944 9.89865 161.187 9.32665 161.672 8.87598C162.175 8.40798 162.816 8.17398 163.596 8.17398C164.359 8.17398 164.983 8.40798 165.468 8.87598C165.971 9.32665 166.222 9.89865 166.222 10.592C166.222 11.268 165.971 11.84 165.468 12.308C164.983 12.7587 164.359 12.984 163.596 12.984ZM165.806 14.492V29H161.36V14.492H165.806ZM173.474 9.75998V29H169.028V9.75998H173.474ZM190.372 21.512C190.372 21.928 190.346 22.3613 190.294 22.812H180.232C180.301 23.7133 180.587 24.4067 181.09 24.892C181.61 25.36 182.243 25.594 182.988 25.594C184.097 25.594 184.869 25.126 185.302 24.19H190.034C189.791 25.1433 189.349 26.0013 188.708 26.764C188.084 27.5267 187.295 28.1247 186.342 28.558C185.389 28.9913 184.323 29.208 183.144 29.208C181.723 29.208 180.457 28.9047 179.348 28.298C178.239 27.6913 177.372 26.8247 176.748 25.698C176.124 24.5713 175.812 23.254 175.812 21.746C175.812 20.238 176.115 18.9207 176.722 17.794C177.346 16.6673 178.213 15.8007 179.322 15.194C180.431 14.5873 181.705 14.284 183.144 14.284C184.548 14.284 185.796 14.5787 186.888 15.168C187.98 15.7573 188.829 16.598 189.436 17.69C190.06 18.782 190.372 20.056 190.372 21.512ZM185.822 20.342C185.822 19.5793 185.562 18.9727 185.042 18.522C184.522 18.0713 183.872 17.846 183.092 17.846C182.347 17.846 181.714 18.0627 181.194 18.496C180.691 18.9293 180.379 19.5447 180.258 20.342H185.822Z" fill="#CCCCCC"/>
</g>
</g>
<defs>
<clipPath id="clip0_447_316">
<rect width="215" height="39" fill="white"/>
</clipPath>
</defs>
</svg>
