<svg width="48" height="48" viewBox="0 0 48 48" fill="none" xmlns="http://www.w3.org/2000/svg">
<rect width="48" height="48" rx="7" fill="#16151D"/>
<path d="M30.6995 35.3186V28.722C30.5495 28.7425 30.3978 28.7527 30.2444 28.7544H29.3359C27.4558 28.7527 25.8331 27.4385 25.441 25.5993C24.8325 25.3283 24.2529 24.9976 23.7091 24.6141C21.9279 25.2124 19.9711 24.4828 19.0182 22.8635L18.5631 22.0914C17.6069 20.4755 17.9086 18.4113 19.2858 17.1365C19.2449 16.7478 19.2227 16.3592 19.2227 15.9688C19.2227 15.5785 19.2449 15.1881 19.2858 14.7995C17.9103 13.5245 17.6085 11.462 18.5631 9.84592L19.0182 9.06867C19.9779 7.45447 21.9313 6.72492 23.7126 7.31811C24.2069 6.97038 24.7302 6.66527 25.2774 6.4096H12.8358C11.5523 6.4096 10.3216 6.92098 9.41478 7.82948C8.50627 8.73799 7.9983 9.97037 8 11.2539V35.3185L30.6995 35.3186ZM22.0626 29.4364C21.6859 29.1006 21.6535 28.5245 21.9876 28.1477C22.3234 27.771 22.8995 27.7369 23.2762 28.0727L25.4086 29.9869C25.6012 30.1642 25.7069 30.4165 25.7 30.6773C25.6983 30.9364 25.5875 31.1818 25.3949 31.354L23.2626 33.2716V33.2733C22.8858 33.6074 22.3097 33.575 21.9739 33.1983C21.6398 32.8216 21.6722 32.2437 22.0489 31.9097L23.4126 30.6687L22.0626 29.4364ZM18.045 32.3903L18.9535 28.5534V28.5551C19.0677 28.0642 19.5569 27.7608 20.0478 27.875C20.537 27.9892 20.8404 28.4784 20.7262 28.9676L19.8177 32.7994C19.7222 33.2102 19.3575 33.5034 18.9365 33.5051C18.8649 33.5034 18.795 33.4965 18.7268 33.4812C18.4882 33.4335 18.2785 33.2903 18.1456 33.084C18.0126 32.8795 17.9683 32.6289 18.0228 32.3903L18.045 32.3903ZM13.313 30.0005L15.4454 28.0864C15.8221 27.7506 16.3983 27.7846 16.734 28.1614C17.0681 28.5381 17.0357 29.1142 16.659 29.45L15.2954 30.6909L16.659 31.9318C16.838 32.0938 16.9471 32.3188 16.959 32.5608C16.9727 32.8029 16.8892 33.0381 16.7272 33.2188C16.5517 33.408 16.3062 33.5154 16.0488 33.5188C15.8255 33.5188 15.6073 33.4369 15.4403 33.2869L13.3079 31.3693V31.3676C13.1136 31.1955 13.0011 30.9466 13.0011 30.6858C13.0011 30.425 13.1136 30.1778 13.3079 30.004L13.313 30.0005ZM30.6995 37.136V37.3644C30.6978 40.0337 28.5331 42.1984 25.8637 42.2002H12.8361C10.1668 42.1985 8.00206 40.0337 8.00031 37.3644V37.1377L30.6995 37.136ZM32.8132 15.9688C32.8132 17.191 32.0768 18.2938 30.9467 18.7608C29.8183 19.2279 28.5177 18.9705 27.6535 18.1063C26.7893 17.2404 26.5302 15.9415 26.9973 14.8114C27.466 13.6813 28.5672 12.9449 29.791 12.9449C30.5921 12.9449 31.3609 13.2637 31.9285 13.8313C32.4944 14.3972 32.8132 15.166 32.8132 15.9688ZM38.9223 18.3449L38.3359 17.8898V17.8915C38.6205 16.6233 38.6205 15.3091 38.3359 14.0409L38.9223 13.5858C39.7865 12.9142 40.0183 11.7074 39.4626 10.7631L39.0075 9.99092H39.0092C38.4501 9.05344 37.2842 8.67502 36.2819 9.10458L35.6001 9.40458C34.6984 8.60686 33.6399 8.00516 32.4944 7.63696L32.4041 6.89549C32.266 5.80968 31.3404 4.99661 30.2444 5.00001H29.3359C28.2433 5.00001 27.3211 5.81479 27.1865 6.90059L27.0961 7.64206L27.0944 7.64036C25.949 8.01024 24.8921 8.61196 23.9904 9.40968L23.3086 9.10968C22.3063 8.67672 21.1387 9.05684 20.5813 9.99602L20.1262 10.7682C19.5637 11.7125 19.7938 12.9278 20.6632 13.5994L21.2496 14.0546C20.9649 15.3227 20.9649 16.637 21.2496 17.9051L20.6632 18.3602V18.3585C19.8006 19.0284 19.5689 20.2352 20.1228 21.1778L20.5779 21.9551H20.5762C21.1336 22.8926 22.3029 23.271 23.3035 22.8363L23.9853 22.5363C24.887 23.3357 25.9439 23.9374 27.091 24.3039L27.1814 25.0488V25.0505C27.3245 26.1295 28.2467 26.9374 29.3359 26.9357H30.2444C31.337 26.934 32.2575 26.1193 32.3956 25.0369L32.4859 24.292V24.2903C33.6331 23.9238 34.6899 23.3221 35.5899 22.5227L36.2717 22.8227C37.274 23.2556 38.4416 22.8772 38.999 21.9414L39.4541 21.1642C40.0098 20.2233 39.7831 19.0182 38.9223 18.3449ZM29.7909 20.8046C27.8324 20.8046 26.0665 19.625 25.3182 17.8148C24.5682 16.0063 24.9841 13.9233 26.3682 12.5391C27.754 11.155 29.8369 10.7426 31.6455 11.4926C33.4542 12.2426 34.6336 14.0102 34.6319 15.9688C34.6285 18.6398 32.462 20.8046 29.7909 20.8046Z" fill="#4D2776"/>
</svg>
